<svg width="40" height="35" viewBox="0 0 40 35" fill="none" xmlns="http://www.w3.org/2000/svg">
<path d="M36.8056 33.125C37.6188 32.33 38.125 31.2237 38.125 30C38.125 27.8719 36.5969 26.0956 34.5806 25.7062C34.775 24.925 35 23.5325 35 21.25C35 18.6412 33.0919 16.495 32.1513 15.5937C32.3669 15.22 32.5 14.7925 32.5 14.3312C32.5 13.8275 32.3525 13.34 32.0725 12.92C31.5844 12.1887 30.83 11.7219 30 11.5806V10.1519C30 9.48437 29.74 8.85687 29.2675 8.38375L28.0956 7.21187C27.9562 6.31562 27.1856 5.625 26.25 5.625C25.2162 5.625 24.375 6.46625 24.375 7.5C24.375 8.53375 25.2162 9.375 26.25 9.375C26.8606 9.375 27.3981 9.0775 27.7406 8.62437L28.3838 9.2675C28.62 9.50437 28.75 9.81812 28.75 10.1519V11.6131L27.3775 11.8875V11.8881C27.34 11.885 27.3037 11.875 27.2663 11.875H23.1038C22.7606 11.875 22.4819 11.5944 22.4819 11.25V10.1681C22.4819 9.31187 22.1456 8.5375 21.6088 7.95125C22.8481 7.53625 23.75 6.3775 23.75 5V4.375H25V3.125H23.6675C23.3662 1.80437 22.2712 0.767499 20.9294 0.639374C20.055 0.556874 19.1725 0.846249 18.5225 1.43687C17.8725 2.0275 17.5 2.87125 17.5 3.75V5C17.5 5.77062 17.7913 6.46812 18.2556 7.01375C17.3662 7.28125 16.6106 7.91937 16.2106 8.78812L13.4181 14.8525C13.2262 15.2687 13.125 15.73 13.125 16.1875C13.125 16.9175 13.3762 17.5887 13.7944 18.125H13.0094C13.08 17.9287 13.125 17.72 13.125 17.5V16.1875V10C13.125 8.96625 12.2837 8.125 11.25 8.125H3.75C2.71625 8.125 1.875 8.96625 1.875 10V17.5C1.875 18.5337 2.71625 19.375 3.75 19.375H9.22125C8.93437 19.8219 8.75 20.4244 8.75 21.25C8.75 22.6906 10.1519 23.6681 11.6362 24.7031C12.1544 25.0644 12.6781 25.4294 13.1531 25.8162C12.7481 25.6925 12.3194 25.625 11.875 25.625C9.46313 25.625 7.5 27.5875 7.5 30C7.5 31.2237 8.00625 32.33 8.81938 33.125H0.625V34.375H16.875V33.125H14.9306C15.2506 32.8119 15.5231 32.4506 15.7362 32.0519C16.1887 32.27 16.9375 32.5 18.125 32.5C19.185 32.5 20.5619 32.3912 22.1569 32.2656C24.3075 32.0956 26.9731 31.8862 29.8038 31.8769C30.0269 32.3444 30.3275 32.7669 30.6938 33.125H25.625V34.375H39.375V33.125H36.8056ZM26.25 8.125C25.905 8.125 25.625 7.84437 25.625 7.5C25.625 7.15562 25.905 6.875 26.25 6.875C26.595 6.875 26.875 7.15562 26.875 7.5C26.875 7.84437 26.595 8.125 26.25 8.125ZM20.0075 28.125C19.7188 28.1175 19.375 28.0031 19.375 27.5C19.375 26.3381 20.0312 25.2775 20.6656 24.2519C21.0144 23.6887 21.3481 23.1425 21.5775 22.5869C21.7531 22.9531 21.855 23.3425 21.855 23.7569L21.8838 26.25H21.875V27.5C21.875 27.72 21.92 27.9287 21.99 28.125H20.0075ZM10.2213 21.875C10.0825 21.6656 10 21.4575 10 21.25C10 19.5094 11.0188 19.375 12.4581 19.375H16.2388C17.8838 19.72 19.5338 20.4025 20.6162 21.3606C20.6044 21.5269 20.5681 21.6981 20.51 21.875H10.2213ZM14.4569 15.6631L20.0912 17.0362C22.6138 17.6556 24.375 19.8769 24.375 22.4375V25.625H23.1262L23.105 23.75C23.105 20.6356 19.4981 18.64 15.9237 18.0431C15.0263 17.8937 14.375 17.1131 14.375 16.1875C14.375 16.0106 14.4088 15.835 14.4569 15.6631ZM23.125 27.5V26.875H24.375C24.8762 26.875 25.3844 27.165 25.5844 27.5656C25.6112 27.6194 25.625 27.6794 25.625 27.7387C25.625 27.9519 25.4531 28.125 25.2413 28.125H23.75C23.405 28.125 23.125 27.8444 23.125 27.5ZM26.7025 27.0075C26.4762 26.5531 26.0888 26.185 25.625 25.9419V22.4375C25.625 19.6287 23.8975 17.1594 21.3244 16.1281L21.5331 15.5012C21.8431 15.5825 22.1612 15.625 22.48 15.625H25.3913C25.5069 15.625 25.6212 15.6175 25.735 15.6081C25.9894 16.3425 26.68 16.875 27.5 16.875L26.6906 17.9537C26.4069 18.3331 26.25 18.8031 26.25 19.2769C26.25 19.8662 26.4875 20.4275 26.9181 20.8581C27.3687 21.3081 28.125 22.2825 28.125 23.75C28.125 25.55 27.4187 27.3831 27.0981 28.125H26.8244C26.8544 28.0006 26.875 27.8725 26.875 27.7387C26.875 27.4862 26.815 27.2331 26.7025 27.0075ZM27.8012 19.9731C27.6075 19.7787 27.5 19.5319 27.5 19.2769C27.5 19.0719 27.5675 18.8681 27.6912 18.7037L29.0625 16.875H29.1481C29.6462 17.3131 31.25 18.905 31.25 21.25C31.25 23.8937 30.93 25.9119 30.755 26.82C30.3619 27.1906 30.0388 27.6325 29.8031 28.125H28.4506C28.8394 27.1325 29.375 25.4569 29.375 23.75C29.375 21.8319 28.3894 20.5606 27.8012 19.9731ZM30.6881 29.375C30.7694 28.9769 30.9281 28.6069 31.1456 28.2794L32.0631 29.1969C32.0356 29.255 32.0119 29.3144 31.9906 29.375H30.6881ZM33.75 30.625C33.405 30.625 33.125 30.3444 33.125 30C33.125 29.6556 33.405 29.375 33.75 29.375C34.095 29.375 34.375 29.6556 34.375 30C34.375 30.3444 34.095 30.625 33.75 30.625ZM34.375 31.76C34.4362 31.7381 34.4956 31.715 34.5531 31.6875L35.4706 32.605C35.1431 32.8225 34.7731 32.9813 34.375 33.0625V31.76ZM36.3544 31.7206L35.4369 30.8031C35.4644 30.745 35.4881 30.6856 35.5094 30.625H36.8112C36.7306 31.0231 36.5719 31.3931 36.3544 31.7206ZM35.51 29.375C35.4881 29.3137 35.465 29.2544 35.4375 29.1969L36.355 28.2794C36.5725 28.6069 36.7313 28.9769 36.8125 29.375H35.51ZM34.5531 28.3131C34.495 28.2856 34.4356 28.2619 34.375 28.2406V26.9387C34.7731 27.02 35.1431 27.1787 35.4706 27.3962L34.5531 28.3131ZM33.125 28.24C33.0638 28.2619 33.0044 28.285 32.9469 28.3125L32.0294 27.395C32.3569 27.1775 32.7269 27.0187 33.125 26.9375V28.24ZM31.99 30.625C32.0119 30.6862 32.035 30.7456 32.0625 30.8031L31.145 31.7206C30.9275 31.3931 30.7687 31.0231 30.6875 30.625H31.99ZM32.9469 31.6869C33.005 31.7144 33.0644 31.7375 33.125 31.7594V33.0612C32.7269 32.98 32.3569 32.8212 32.0294 32.6037L32.9469 31.6869ZM33.75 21.25C33.75 23.755 33.4631 25.0906 33.3 25.6481C32.9062 25.6887 32.53 25.7856 32.1737 25.9237C32.3363 24.8044 32.5 23.1975 32.5 21.25C32.5 19.2006 31.5419 17.6575 30.755 16.7337C30.94 16.6719 31.1156 16.5931 31.2794 16.4931C32.0806 17.2637 33.75 19.1244 33.75 21.25ZM31.0325 13.6131C31.175 13.8269 31.25 14.075 31.25 14.3312C31.25 15.045 30.6694 15.625 29.9562 15.625H27.5C27.2719 15.625 27.08 15.4956 26.9712 15.3125C27.4681 15.1069 27.9244 14.8031 28.3162 14.4106C28.6519 14.0737 28.8069 13.5919 28.7306 13.1219C28.7181 13.0462 28.6912 12.975 28.6675 12.9031L29.1075 12.815C29.8544 12.6662 30.61 12.9794 31.0325 13.6131ZM23.1038 13.125H27.2663C27.3025 13.125 27.3375 13.1337 27.37 13.15C27.4631 13.1969 27.4894 13.2787 27.4969 13.3231C27.5044 13.3681 27.5056 13.4537 27.4312 13.5281C26.8862 14.0744 26.1612 14.375 25.3913 14.375H22.48C21.4375 14.375 20.6844 13.8444 20.2931 12.915L21.7587 12.5487C22.0994 12.9025 22.575 13.125 23.1038 13.125ZM19.3638 2.36187C19.7588 2.0025 20.2688 1.83187 20.8106 1.88375C21.5188 1.95187 22.1119 2.4525 22.3662 3.125H18.8575C18.96 2.83562 19.1325 2.5725 19.3638 2.36187ZM18.75 4.375H22.5V5C22.5 6.03375 21.6588 6.875 20.625 6.875C19.5912 6.875 18.75 6.03375 18.75 5V4.375ZM17.3456 9.31125C17.6775 8.59062 18.4031 8.125 19.195 8.125C20.3181 8.125 21.2319 9.04125 21.2319 10.1681V11.25C21.2319 11.2975 21.2425 11.3419 21.2456 11.3881L20.015 11.6956C20.0031 11.5494 19.9875 11.4062 19.9875 11.25V10.625H18.7375V11.25C18.7375 13.0837 19.4312 14.2994 20.3919 14.9744L20.13 15.7594L14.9569 14.4987L17.3456 9.31125ZM6.875 9.375H8.125V10.625H6.875V9.375ZM3.125 17.5V10C3.125 9.65562 3.405 9.375 3.75 9.375H5.625V11.875H9.375V9.375H11.25C11.595 9.375 11.875 9.65562 11.875 10V17.5C11.875 17.8444 11.595 18.125 11.25 18.125H3.75C3.405 18.125 3.125 17.8444 3.125 17.5ZM13.635 29.375C13.6131 29.3137 13.59 29.2544 13.5625 29.1969L14.48 28.2794C14.6975 28.6069 14.8562 28.9769 14.9375 29.375H13.635ZM12.5 30C12.5 30.3444 12.22 30.625 11.875 30.625C11.53 30.625 11.25 30.3444 11.25 30C11.25 29.6556 11.53 29.375 11.875 29.375C12.22 29.375 12.5 29.6556 12.5 30ZM12.6781 28.3131C12.62 28.2856 12.5606 28.2619 12.5 28.2406V26.9387C12.8981 27.02 13.2681 27.1787 13.5956 27.3962L12.6781 28.3131ZM11.25 28.24C11.1888 28.2619 11.1294 28.285 11.0719 28.3125L10.1544 27.395C10.4819 27.1775 10.8519 27.0187 11.25 26.9375V28.24ZM10.1881 29.1969C10.1606 29.255 10.1369 29.3144 10.1156 29.375H8.81375C8.895 28.9769 9.05375 28.6069 9.27125 28.2794L10.1881 29.1969ZM10.115 30.625C10.1369 30.6862 10.16 30.7456 10.1875 30.8031L9.27 31.7206C9.0525 31.3931 8.89375 31.0231 8.8125 30.625H10.115ZM11.0719 31.6869C11.13 31.7144 11.1894 31.7375 11.25 31.7594V33.0612C10.8519 32.98 10.4819 32.8212 10.1544 32.6037L11.0719 31.6869ZM12.5 31.76C12.5612 31.7381 12.6206 31.715 12.6781 31.6875L13.5956 32.605C13.2681 32.8225 12.8981 32.9813 12.5 33.0625V31.76ZM14.4794 31.7206L13.5619 30.8031C13.5894 30.745 13.6131 30.6856 13.6344 30.625H14.9363C14.8556 31.0231 14.6969 31.3931 14.4794 31.7206ZM16.25 30.915V28.8631C16.25 26.3962 14.0881 24.8887 12.3519 23.6781C12.0844 23.4912 11.8219 23.3075 11.5725 23.125H19.8894C19.7962 23.2794 19.7006 23.4356 19.6025 23.5937C18.91 24.7137 18.125 25.9825 18.125 27.5C18.125 28.4037 18.61 28.9237 19.1556 29.1781L18.3288 31.2456C18.2631 31.2462 18.1875 31.25 18.125 31.25C17.0981 31.25 16.5175 31.0456 16.25 30.915ZM22.0588 31.0187C21.1969 31.0869 20.4081 31.1475 19.6969 31.1906L20.4231 29.375H29.425C29.3956 29.58 29.375 29.7875 29.375 30C29.375 30.2144 29.3956 30.4237 29.4256 30.63C26.69 30.6556 24.1356 30.855 22.0588 31.0187Z" fill="black"/>
</svg>
