<svg width="18" height="20" viewBox="0 0 18 20" fill="none" xmlns="http://www.w3.org/2000/svg">
<path d="M1.25195 6.59668H1.60223L3.29941 19.4905C3.33777 19.7821 3.58629 20 3.88035 20H14.12C14.4141 20 14.6625 19.7821 14.7009 19.4905L16.3981 6.59668H16.7484C17.072 6.59668 17.3343 6.33434 17.3343 6.01074V3.44711C17.3343 3.12352 17.072 2.86117 16.7484 2.86117H11.7344V2.63027C11.7344 1.17996 10.5545 0 9.10418 0H8.89617C7.44586 0 6.2659 1.17996 6.2659 2.63027V2.86117H1.25195C0.928359 2.86117 0.666016 3.12352 0.666016 3.44711V6.01074C0.666016 6.33434 0.92832 6.59668 1.25195 6.59668ZM13.6061 18.8281H4.39418L2.78422 6.59668H15.2161L13.6061 18.8281ZM7.43773 2.63027C7.43773 1.82613 8.09199 1.17188 8.89613 1.17188H9.10414C9.90828 1.17188 10.5625 1.82613 10.5625 2.63027V2.86117H7.43773V2.63027ZM1.83789 4.03305H16.1625V5.4248C16.0372 5.4248 1.99414 5.4248 1.83789 5.4248V4.03305Z" fill="#613D2B"/>
</svg>
